# xmcd CD database file
#
# Track frame offsets:
#	150
#	17731
#	34933
#	50057
#	68549
#	85218
#	99505
#	112114
#	133963
#	154214
#	180546
#
# Disc length: 2534 seconds
#
# Revision: 1
# Processed by: cddbd v1.5.2PL0 Copyright (c) Steve Scherf et al.
# Submitted via: CDex 1.51
#
DISCID=9509e40b
DTITLE=RINGO STARR - Time Takes Time
DYEAR=1992
DGENRE=Rock
TTITLE0=Weight Of The World
TTITLE1=Don't Know A Thing About Love
TTITLE2=Don't Go Where The Road Don't Go
TTITLE3=Golden Blunders
TTITLE4=All In The Name Of Love
TTITLE5=After All These Years
TTITLE6=I Don't Believe You
TTITLE7=Runaways
TTITLE8=In A Heartbeat
TTITLE9=What Goes Around
TTITLE10=Don't Be Cluel
EXTD=YEAR: 1992
EXTT0=weight of the world
EXTT1=
EXTT2=
EXTT3=
EXTT4=
EXTT5=
EXTT6=
EXTT7=
EXTT8=
EXTT9=
EXTT10=
PLAYORDER=
